<svg xmlns="http://www.w3.org/2000/svg" width="900" height="420" viewBox="0 0 900 420">
<rect width="100%" height="100%" fill="#ffffff" />
<text x="30" y="51" font-family="Arial, sans-serif" font-size="21" fill="#141414">CAPTURE SUMMARY (CAPTURED 2024-01-01)</text>
<rect x="40" y="120" width="840" height="60" fill="#dcebfa" />
<text x="50" y="152" font-family="Arial, sans-serif" font-size="14" fill="#000000">DATASET</text>
<text x="410" y="152" font-family="Arial, sans-serif" font-size="14" fill="#000000">HOSTS</text>
<text x="530" y="152" font-family="Arial, sans-serif" font-size="14" fill="#000000">UNIQUE FINGERPRINTS</text>
<text x="770" y="152" font-family="Arial, sans-serif" font-size="14" fill="#000000">SAMPLES</text>
<text x="50" y="212" font-family="Arial, sans-serif" font-size="14" fill="#000000">TLS FINGERPRINTS</text>
<text x="410" y="212" font-family="Arial, sans-serif" font-size="14" fill="#000000">0</text>
<text x="530" y="212" font-family="Arial, sans-serif" font-size="14" fill="#000000">0</text>
<text x="770" y="212" font-family="Arial, sans-serif" font-size="14" fill="#000000">0</text>
<rect x="40" y="240" width="840" height="60" fill="#f5f5f5" />
<text x="50" y="272" font-family="Arial, sans-serif" font-size="14" fill="#000000">SSH FINGERPRINTS</text>
<text x="410" y="272" font-family="Arial, sans-serif" font-size="14" fill="#000000">0</text>
<text x="530" y="272" font-family="Arial, sans-serif" font-size="14" fill="#000000">0</text>
<text x="770" y="272" font-family="Arial, sans-serif" font-size="14" fill="#000000">0</text>
<rect x="40" y="120" width="2" height="180" fill="#000000" />
<rect x="880" y="120" width="2" height="180" fill="#000000" />
<rect x="40" y="120" width="2" height="180" fill="#000000" />
<rect x="400" y="120" width="2" height="180" fill="#000000" />
<rect x="520" y="120" width="2" height="180" fill="#000000" />
<rect x="760" y="120" width="2" height="180" fill="#000000" />
<rect x="40" y="120" width="840" height="2" fill="#000000" />
<rect x="40" y="180" width="840" height="2" fill="#000000" />
<rect x="40" y="240" width="840" height="2" fill="#000000" />
<rect x="40" y="300" width="840" height="2" fill="#000000" />
</svg>
